<?xml version="1.0" encoding="utf-8"?>
<!-- Uploaded to: SVG Repo, www.svgrepo.com, Generator: SVG Repo Mixer Tools -->
<svg width="800px" height="800px" viewBox="0 0 1024 1024" class="icon"  version="1.1" xmlns="http://www.w3.org/2000/svg"><path d="M279.3 782.1L178.6 942.6" fill="#F7F9F9" /><path d="M178.6 957.5c-2.7 0-5.5-0.7-7.9-2.3-7-4.4-9.1-13.6-4.7-20.6l100.6-160.4c4.4-7 13.6-9.1 20.6-4.7 7 4.4 9.1 13.6 4.7 20.6L191.3 950.5c-2.9 4.5-7.7 7-12.7 7z" fill="#154B8B" /><path d="M751.9 782.1l100.6 160.5" fill="#F7F9F9" /><path d="M852.6 957.5c-5 0-9.8-2.5-12.7-7L739.3 790.1c-4.4-7-2.3-16.2 4.7-20.6 7-4.4 16.2-2.3 20.6 4.7l100.6 160.4c4.4 7 2.3 16.2-4.7 20.6-2.5 1.6-5.2 2.3-7.9 2.3z" fill="#154B8B" /><path d="M603 688.4c-56.4 61.4-148.6 61.4-204.9 0L87.4 350.2C31 288.8 31 188.4 87.4 127c56.4-61.4 148.6-61.4 204.9 0L603 465.3c56.3 61.3 56.3 161.7 0 223.1z" fill="#98C9D6" /><path d="M500.5 749.4c-43.1 0-83.3-18.1-113.5-50.9L76.4 360.3c-61.6-67.1-61.6-176.2 0-243.3 30.1-32.8 70.4-50.9 113.5-50.9 43.1 0 83.3 18.1 113.5 50.9L614 455.2c61.6 67.1 61.6 176.2 0 243.3-30.1 32.8-70.4 50.9-113.5 50.9zM189.9 95.9c-34.6 0-67.1 14.6-91.5 41.2C73.7 164 60 200.1 60 238.6s13.6 74.6 38.3 101.5L409 678.3c24.4 26.6 56.9 41.2 91.5 41.2s67.1-14.6 91.5-41.2c24.7-26.9 38.3-63 38.3-101.5s-13.6-74.6-38.3-101.5L281.3 137.1c-24.4-26.5-56.8-41.2-91.4-41.2z" fill="#154B8B" /><path d="M428.2 688.4c56.4 61.4 148.6 61.4 204.9 0l310.7-338.2c56.4-61.4 56.4-161.8 0-223.1-56.4-61.4-148.6-61.4-204.9 0L428.2 465.3c-56.4 61.3-56.4 161.7 0 223.1z" fill="#98C9D6" /><path d="M530.7 749.4c-43.1 0-83.3-18.1-113.5-50.9-61.6-67.1-61.6-176.2 0-243.3L727.9 117c30.1-32.8 70.4-50.9 113.5-50.9 43.1 0 83.3 18.1 113.5 50.9 61.6 67.1 61.6 176.2 0 243.3L644.1 698.5c-30.1 32.8-70.4 50.9-113.4 50.9z m-91.5-71.1c24.4 26.6 56.9 41.2 91.5 41.2s67.1-14.6 91.5-41.2l310.7-338.2c24.7-26.9 38.3-63 38.3-101.5s-13.6-74.6-38.3-101.5c-24.4-26.6-56.9-41.2-91.5-41.2s-67.1 14.6-91.5 41.2L439.2 475.4c-24.7 26.9-38.3 63-38.3 101.5-0.1 38.5 13.6 74.5 38.3 101.4z" fill="#154B8B" /><path d="M515.6 517.3m-396.8 0a396.8 396.8 0 1 0 793.6 0 396.8 396.8 0 1 0-793.6 0Z" fill="#F7F9F9" /><path d="M515.6 929.1c-55.6 0-109.5-10.9-160.3-32.4-49-20.7-93.1-50.4-130.9-88.2-37.8-37.8-67.5-81.8-88.2-130.9-21.5-50.8-32.4-104.7-32.4-160.3 0-55.6 10.9-109.5 32.4-160.3 20.7-49 50.4-93.1 88.2-130.9 37.8-37.8 81.8-67.5 130.9-88.2 50.8-21.5 104.7-32.4 160.3-32.4s109.5 10.9 160.3 32.4c49 20.7 93.1 50.4 130.9 88.2C844.5 264 874.2 308 895 357c21.5 50.8 32.4 104.7 32.4 160.3 0 55.6-10.9 109.5-32.4 160.3-20.7 49-50.4 93.1-88.2 130.9S725 876 675.9 896.7c-50.8 21.5-104.7 32.4-160.3 32.4z m0-793.7c-102 0-197.9 39.7-270 111.9s-111.9 168-111.9 270 39.7 197.9 111.9 270c72.1 72.1 168 111.9 270 111.9s197.9-39.7 270-111.9c72.1-72.1 111.9-168 111.9-270s-39.7-197.9-111.9-270-168-111.9-270-111.9z" fill="#154B8B" /><path d="M515.6 251.6v265.7l164.3 130.3" fill="#F7F9F9" /><path d="M679.9 662.6c-3.2 0-6.5-1.1-9.3-3.2L506.3 529c-3.6-2.8-5.7-7.1-5.7-11.7V251.6c0-8.2 6.7-14.9 14.9-14.9s14.9 6.7 14.9 14.9v258.5L689 635.9c6.5 5.1 7.5 14.5 2.4 21-2.8 3.7-7.1 5.7-11.5 5.7z" fill="#154B8B" /></svg>